<svg width="85" height="85" viewBox="0 0 85 85" fill="none" xmlns="http://www.w3.org/2000/svg">
<g clip-path="url(#clip0_125_388)">
<path d="M42.5008 85C65.9727 85 85 65.9727 85 42.4992C85 19.0288 65.9727 0 42.5008 0C19.0288 0 0 19.0288 0 42.5008C0 65.9727 19.0288 85 42.5008 85Z" fill="black"/>
<path d="M42.501 84.1487C65.5022 84.1487 84.1489 65.5019 84.1489 42.5008C84.1489 19.498 65.5037 0.851318 42.501 0.851318C19.4983 0.851318 0.851562 19.498 0.851562 42.5008C0.851562 65.5004 19.4983 84.1487 42.501 84.1487Z" fill="#B3B3B3"/>
<path d="M42.5007 73.1166C59.4081 73.1166 73.1165 59.4097 73.1165 42.5008C73.1165 25.5919 59.4081 11.8835 42.5007 11.8835C25.5918 11.8835 11.8834 25.5919 11.8834 42.5008C11.8834 59.4097 25.5918 73.1166 42.5007 73.1166ZM9.33551 43.6961L10.789 44.3227L10.76 46.7575L2.39648 43.262L2.42705 40.7569L10.87 37.535L10.841 39.982L9.37372 40.5368L9.33551 43.6961ZM11.5823 29.5398L12.6384 26.9996L14.3472 27.7119L12.4092 32.369L4.64938 29.1409L5.53127 27.0225L11.5823 29.5398Z" fill="black"/>
<path d="M14.1851 16.8324L15.2214 17.78L16.9195 15.9215L18.2859 17.1702L16.5878 19.0287L19.0241 21.2541L17.4758 22.9476L11.272 17.2787L14.6895 13.5371L16.0559 14.7843L14.1851 16.8324ZM25.7782 13.8596L25.9173 15.4354L23.7607 16.5649L22.8666 7.54571L25.0858 6.38259L31.9301 12.2853L29.7628 13.421L28.5767 12.3923L25.7782 13.8596ZM44.1406 10.5796L41.2932 10.8058L38.8798 7.75511L38.8569 7.75663L39.1121 10.977L36.8256 11.1574L36.1608 2.78163L39.5783 2.5111C41.3176 2.37201 42.6993 3.05674 42.84 4.84652C42.9317 6.00201 42.334 7.05662 41.1021 7.36536L44.1406 10.5796ZM58.303 9.67786C57.47 12.2685 54.9313 13.4653 52.2336 12.5971C49.5375 11.7275 48.1772 9.27588 49.0102 6.68674C49.7897 4.26725 52.5653 3.28754 54.9832 4.0655C57.4012 4.84347 59.0809 7.2599 58.303 9.67786ZM67.1663 10.5598L68.8109 12.1065L67.0348 16.6062L71.4948 14.6361L73.1562 16.2012L68.6932 23.6828L67.0516 22.0825L69.5445 17.6975L69.5277 17.6822L64.6673 19.7501L64.0024 19.125L65.8457 14.2142L65.8289 14.1989L61.6731 16.9852L59.9919 15.44L67.1663 10.5598ZM77.9065 27.7637L76.6089 28.3017L77.6008 30.6906L75.892 31.3998L74.9001 29.0108L73.5612 29.5657L74.6066 32.086L72.8979 32.7937L70.9751 28.1565L78.7364 24.9361L80.6607 29.5733L78.9519 30.281L77.9065 27.7637ZM78.8373 46.1933C76.1198 46.2881 74.1328 44.3073 74.0335 41.4751C73.9387 38.6445 75.7835 36.5307 78.5026 36.4359C81.0413 36.3503 82.9044 38.6277 82.9915 41.1664C83.0802 43.7035 81.3775 46.1047 78.8373 46.1933Z" fill="black"/>
<path d="M5.00879 42.0406V42.065L7.6713 43.0448L7.69575 41.1358L5.00879 42.0406ZM25.1809 9.26516L25.161 9.27586L25.5614 12.0851L27.2519 11.1986L25.1809 9.26516ZM38.7456 6.35658L38.9672 6.33824C39.7131 6.28016 40.543 6.07993 40.4712 5.16747C40.3993 4.25653 39.548 4.19081 38.8021 4.25042L38.5805 4.2657L38.7456 6.35658ZM51.2786 7.42953C51.1721 7.74152 51.1293 8.0717 51.1528 8.40053C51.1762 8.72936 51.2654 9.05015 51.415 9.34389C51.5647 9.63763 51.7717 9.89835 52.024 10.1106C52.2762 10.3229 52.5685 10.4823 52.8835 10.5796C53.1962 10.6846 53.5268 10.7258 53.8557 10.7007C54.1846 10.6756 54.5052 10.5847 54.7983 10.4335C55.0915 10.2823 55.3514 10.0738 55.5625 9.82034C55.7736 9.56688 55.9317 9.27362 56.0274 8.95795C56.382 7.85443 55.6377 6.50178 54.334 6.08146C53.0287 5.66115 51.6348 6.32601 51.2786 7.42953ZM78.5732 38.8248C78.2435 38.8304 77.9184 38.902 77.617 39.0355C77.3155 39.1689 77.0439 39.3615 76.8182 39.6017C76.5925 39.842 76.4172 40.1251 76.3028 40.4342C76.1884 40.7434 76.1372 41.0724 76.1521 41.4017C76.1595 41.7314 76.2329 42.0562 76.3681 42.3569C76.5034 42.6577 76.6977 42.9282 76.9394 43.1524C77.1812 43.3767 77.4655 43.55 77.7756 43.6623C78.0856 43.7746 78.4151 43.8234 78.7443 43.8059C79.9029 43.7662 80.9239 42.6076 80.8765 41.2397C80.8291 39.8702 79.7317 38.7835 78.5732 38.8248ZM42.8586 72.3247L42.857 12.6766C59.1347 12.8386 72.325 26.1297 72.325 42.5006C72.325 58.8715 59.1424 72.1611 42.802 72.3247H42.8586ZM12.9107 46.2651C13.8989 54.0639 17.9304 61.1557 24.1263 65.994L24.1217 46.2682H12.9107V46.2651ZM24.1079 19.0211L24.1217 37.2276L13.1339 37.2245C14.4391 29.8545 18.4528 23.4565 24.1079 19.0211ZM42.1433 37.2261H33.1607L33.1684 14.1653C36.0659 13.2114 39.093 12.7093 42.1433 12.6766V37.2261ZM42.1433 72.3247C39.0885 72.2922 36.057 71.788 33.1562 70.8299L33.1607 46.2667H42.1433V72.3247Z" fill="#B3B3B3"/>
<path d="M51.2371 25.251H62.0827V24.1215H51.2371V25.251ZM51.2371 23.18H62.0827V22.3149H51.2371V23.18ZM58.8822 21.8274C59.0615 21.8274 59.2367 21.7742 59.3858 21.6746C59.5348 21.575 59.651 21.4335 59.7196 21.2678C59.7882 21.1022 59.8061 20.92 59.7712 20.7442C59.7362 20.5684 59.6499 20.4069 59.5231 20.2801C59.3964 20.1534 59.2349 20.067 59.0591 20.0321C58.8832 19.9971 58.701 20.015 58.5354 20.0836C58.3698 20.1522 58.2282 20.2684 58.1286 20.4175C58.029 20.5665 57.9759 20.7417 57.9759 20.921C57.9763 21.1613 58.0719 21.3916 58.2418 21.5614C58.4117 21.7313 58.642 21.827 58.8822 21.8274ZM54.9282 65.9773C53.6902 65.9773 52.6891 65.0511 52.6891 63.8146C52.6891 62.5811 53.6902 61.5036 54.9282 61.5036L59.2949 61.5051C59.7672 61.5051 60.1478 61.123 60.1478 60.6507C60.1486 60.4229 60.0595 60.2039 59.8998 60.0414C59.7401 59.8788 59.5227 59.7858 59.2949 59.7826H52.2902C51.2024 59.7822 50.1594 59.3498 49.3904 58.5805C48.6214 57.8113 48.1894 56.7681 48.1894 55.6803C48.1894 53.4167 50.025 51.6728 52.2902 51.6728L60.8753 51.6667C61.4057 51.6667 61.8351 51.3885 61.8351 50.8612C61.8364 50.6044 61.7363 50.3575 61.5566 50.1741C61.3769 49.9907 61.1321 49.8855 60.8753 49.8815H52.2153C51.3924 49.8998 50.5742 49.7535 49.8086 49.4513C49.0431 49.1491 48.3456 48.6969 47.7572 48.1214C47.1688 47.546 46.7012 46.8587 46.3821 46.1001C46.0629 45.3414 45.8984 44.5267 45.8984 43.7036C45.8984 42.8806 46.0629 42.0658 46.3821 41.3072C46.7012 40.5485 47.1688 39.8613 47.7572 39.2858C48.3456 38.7103 49.0431 38.2582 49.8086 37.956C50.5742 37.6537 51.3924 37.5074 52.2153 37.5258L60.5375 37.5319C61.184 37.5319 61.7083 36.9694 61.7083 36.3229C61.7083 35.6748 61.184 35.1888 60.5375 35.1888L51.1591 35.1934C51.6115 33.2355 52.8924 32.9329 54.0203 32.9344H58.3886C58.5076 32.9346 58.6256 32.9113 58.7356 32.8658C58.8457 32.8203 58.9457 32.7536 59.0299 32.6694C59.1141 32.5852 59.1809 32.4852 59.2263 32.3751C59.2718 32.2651 59.2951 32.1471 59.2949 32.028C59.2949 31.5298 58.8899 31.1996 58.3886 31.1996H54.0203C52.1389 31.1996 51.2356 29.5428 51.1591 28.641H55.6787C56.0547 27.4351 56.8082 26.8329 57.6366 26.8329H62.4572C64.114 26.8329 64.7911 25.7783 64.9424 25.3259C66.0719 25.8532 70.1375 29.0919 70.1375 34.5148C70.1375 39.9376 65.3184 42.7239 62.3044 42.7453H52.2122C51.958 42.7453 51.7143 42.8463 51.5346 43.026C51.3549 43.2057 51.2539 43.4495 51.2539 43.7036C51.2539 43.9578 51.3549 44.2015 51.5346 44.3813C51.7143 44.561 51.958 44.6619 52.2122 44.6619L61.7022 44.6543C64.7025 44.6543 67.1342 47.1823 67.1342 50.1811C67.1342 53.1814 64.7025 55.5382 61.7022 55.5382L52.6631 55.5275C52.4229 55.5275 52.1926 55.6229 52.0228 55.7927C51.8529 55.9626 51.7575 56.1929 51.7575 56.4331C51.7575 56.6732 51.8529 56.9036 52.0228 57.0734C52.1926 57.2433 52.4229 57.3387 52.6631 57.3387L59.5181 57.3448C61.1351 57.3448 62.4465 58.6562 62.4465 60.2748C62.4465 61.8949 61.1351 63.1849 59.5181 63.1849L55.3745 63.1971C55.1909 63.1971 55.0148 63.27 54.8849 63.3999C54.7551 63.5297 54.6821 63.7058 54.6821 63.8895C54.6821 64.0731 54.7551 64.2492 54.8849 64.379C55.0148 64.5089 55.1909 64.5818 55.3745 64.5818H58.5567C59.6678 64.5864 60.9104 66.2234 58.52 67.1282C58.5399 66.6574 58.4634 65.9788 57.4654 65.9788C56.4719 65.9803 54.9282 65.9773 54.9282 65.9773Z" fill="black"/>
<path d="M51.9342 32.0694C50.1643 32.8978 49.7317 35.3815 49.8234 36.2481L47.3397 37.9615C47.2595 38.0486 47.1625 38.1186 47.0546 38.1673C46.9467 38.216 46.83 38.2424 46.7116 38.2449C46.5932 38.2473 46.4755 38.2259 46.3656 38.1817C46.2558 38.1376 46.1559 38.0717 46.0721 37.988C45.9883 37.9043 45.9223 37.8046 45.8781 37.6948C45.8338 37.5849 45.8122 37.4673 45.8145 37.3489C45.8169 37.2305 45.8431 37.1138 45.8917 37.0058C45.9402 36.8978 46.0101 36.8007 46.0971 36.7204L47.6974 35.6077C48.4876 35.0804 48.3378 34.2153 48.2247 33.5C48.1131 32.7847 47.3596 33.1225 47.1319 33.3869C46.7956 33.7247 46.3295 33.9341 45.8144 33.9341C44.7842 33.9341 43.9497 33.1362 43.9497 32.1061C43.9498 31.7375 44.0592 31.3771 44.264 31.0706C44.4688 30.7641 44.7598 30.5252 45.1004 30.384C45.4409 30.2429 45.8156 30.2058 46.1772 30.2776C46.5388 30.3493 46.871 30.5266 47.1319 30.7871C47.3581 31.0515 48.1131 31.3908 48.2247 30.674C48.3378 29.9587 48.4876 29.092 47.6974 28.5647L46.0971 27.4536C46.0155 27.372 45.9508 27.2751 45.9067 27.1685C45.8625 27.0619 45.8398 26.9477 45.8398 26.8323C45.8398 26.7169 45.8625 26.6026 45.9067 26.496C45.9508 26.3894 46.0155 26.2926 46.0971 26.211C46.1787 26.1294 46.2756 26.0647 46.3822 26.0205C46.4888 25.9763 46.6031 25.9536 46.7184 25.9536C46.8338 25.9536 46.9481 25.9763 47.0547 26.0205C47.1613 26.0647 47.2582 26.1294 47.3397 26.211L49.8234 27.9243C49.6736 28.6427 50.1643 31.241 51.9342 32.0694Z" fill="black"/>
</g>
<defs>
<clipPath id="clip0_125_388">
<rect width="85" height="85" fill="white"/>
</clipPath>
</defs>
</svg>
