<svg width="281" height="61" viewBox="0 0 281 61" fill="none" xmlns="http://www.w3.org/2000/svg">
<path fill-rule="evenodd" clip-rule="evenodd" d="M0 60.1858V54.331H3.25285C4.87852 54.331 8.13287 54.0055 8.13287 50.1018V14.9699C8.13287 12.8553 7.9694 7.8133 3.90372 7.8133H0.163467L4.39262 0.331299H254.616V7.8133H24.3986C22.284 7.8133 19.5186 8.30071 19.5186 12.5299V23.5901C20.0075 24.8904 21.9586 25.3778 22.9349 25.3778C23.9112 25.3778 27.326 25.2158 27.326 19.8484H32.2061V37.9033H27.326C27.326 36.2761 25.5294 33.5511 23.0984 33.3487C21.1458 33.1867 19.5186 33.8361 19.5186 36.4396V50.1018C19.5186 51.567 21.3077 54.331 25.5369 54.331H28.4658V60.1858H0Z" fill="#B3B3B3"/>
<path fill-rule="evenodd" clip-rule="evenodd" d="M144.402 16.2702C144.402 17.572 146.028 18.8722 147.003 19.1977C148.143 18.3848 154.161 14.97 158.877 14.97C163.594 14.97 166.033 17.4085 166.033 21.1503V39.0417H154.647V25.2175C154.647 23.4283 154.161 22.1266 152.532 21.9646C150.907 21.8026 146.677 25.2175 145.541 26.8446V51.5672C145.541 53.8452 147.817 55.4709 149.77 55.4709V60.1889H129.927V55.3089C131.878 55.3089 133.993 54.6581 134.156 51.7306V24.2396C134.156 23.4268 132.855 21.1488 129.927 21.1488V16.2702H144.402ZM280.574 16.2702H260.733V21.1503C263.658 21.1503 264.959 23.4268 264.959 24.2411V51.7291C264.798 54.6566 262.682 55.3074 260.733 55.3074V60.1875H280.574V55.4694C278.622 55.4694 276.344 53.8437 276.344 51.5657V24.5651C276.344 22.614 278.459 21.1503 280.574 21.1503V16.2702ZM100.487 16.2702C100.487 17.572 102.112 18.8722 103.089 19.1977C104.227 18.3848 110.245 14.97 114.962 14.97C119.678 14.97 122.118 17.4085 122.118 21.1503V39.0417H110.734V25.2175C110.734 23.4283 110.245 22.1266 108.62 21.9646C106.992 21.8026 102.763 25.2175 101.625 26.8446V51.5672C101.625 53.8452 103.903 55.4709 105.854 55.4709V60.1889H86.0115V55.3089C87.9627 55.3089 90.0772 54.6581 90.2407 51.7306V24.2396C90.2407 23.4268 88.939 21.1488 86.0115 21.1488V16.2702H100.487ZM232.427 16.2702C232.427 17.572 234.056 18.8722 235.031 19.1977C236.17 18.3848 242.186 14.97 246.905 14.97C251.622 14.97 254.06 17.4085 254.06 21.1503V39.0417H242.675V25.2175C242.675 23.4283 242.186 22.1266 240.56 21.9646C238.934 21.8026 234.705 25.2175 233.565 26.8446V51.5672C233.565 53.8452 235.842 55.4709 237.795 55.4709V60.1889H217.951V55.3089C219.905 55.3089 222.019 54.6581 222.18 51.7306V24.2396C222.18 23.4268 220.88 21.1488 217.951 21.1488V16.2702H232.427ZM77.4228 46.5237H66.037V50.9163C66.037 52.7039 65.7116 56.4472 60.3442 56.4472C54.9768 56.4472 53.3511 52.8674 53.3511 50.2654V40.9943C53.3511 40.1814 54.002 39.0417 55.1402 39.0417H77.4228V27.1686C77.4228 21.8011 76.2845 20.174 74.0065 17.8974C71.7299 15.6194 63.759 14.97 60.1807 14.97C51.073 14.97 48.1441 16.2702 45.5422 18.3848C42.9402 20.4994 41.9639 24.8905 41.9639 28.1434V46.5222C41.9639 51.4007 42.9402 54.817 46.0296 57.9079C49.1189 60.9988 58.5535 60.9988 60.5062 60.9988C62.4573 60.9988 68.963 61.1607 73.681 57.7459C78.3991 54.3311 77.4228 46.5237 77.4228 46.5237ZM53.3511 26.3557C53.3511 23.7537 54.1639 19.85 59.8568 19.85C65.5496 19.85 66.037 24.0792 66.037 26.3557V32.2106C66.037 33.1854 65.2242 34.1617 64.0859 34.1617H55.3022C54.3274 34.1617 53.3511 33.3488 53.3511 32.374V26.3557ZM207.87 51.5657V27.1686C207.87 23.4268 207.706 19.5246 203.801 16.7591C199.899 13.9937 193.555 14.1572 191.115 14.1572C188.675 14.1572 180.544 14.1572 176.8 18.3863C173.06 22.6155 173.709 26.6812 173.709 28.3068H184.365C184.365 28.3068 185.094 22.7774 186.559 21.3137C188.032 19.841 191.928 18.2229 194.936 20.8248C196.043 21.7846 196.479 23.0204 196.479 24.4031V31.3962C196.479 32.0486 195.829 33.0234 195.017 33.0234C195.017 33.0234 180.214 33.3488 177.613 35.3014C175.013 37.2525 172.733 38.5543 172.733 45.7108C172.733 52.8659 174.522 55.6314 176.638 57.0966C178.753 58.5603 179.729 60.1875 189.324 60.1875H212.096V55.4694C210.146 55.4694 207.87 53.8437 207.87 51.5657ZM196.482 54.3311C196.482 54.7375 195.832 55.3059 195.346 55.3059H189.734C185.748 55.3059 184.611 51.8911 184.611 49.775V43.5123C184.611 37.4145 190.953 37.5765 193.474 37.5765C195.995 37.5765 196.482 39.6896 196.482 41.0723V54.3311ZM269.906 7.73245C275.601 7.73245 280.214 6.0018 280.214 3.86623C280.214 1.73216 275.601 0 269.906 0C264.212 0 259.596 1.73066 259.596 3.86623C259.596 6.0003 264.212 7.73245 269.906 7.73245Z" fill="#B3B3B3"/>
</svg>
