<svg width="86" height="85" viewBox="0 0 86 85" fill="none" xmlns="http://www.w3.org/2000/svg">
<path d="M0 44.3816C0 43.1402 0 41.9153 0 40.6739C0.0331047 40.4256 0.0827617 40.1939 0.115866 39.9456C0.397256 37.8765 0.513123 35.7578 0.960036 33.7219C5.04847 14.786 21.336 0.964809 40.6526 0.0544305C51.1798 -0.44214 60.714 2.45452 69.0564 8.92649C77.8126 15.7129 83.159 24.6016 85.0625 35.5427C85.3108 36.9496 85.4598 38.3731 85.6418 39.7966C85.6418 41.6339 85.6418 43.4547 85.6418 45.292C85.5922 45.5072 85.5425 45.7223 85.5094 45.9375C85.0294 48.6356 84.7646 51.3998 84.0363 53.9985C78.3588 74.0268 59.2574 86.9046 38.4014 84.7693C28.4038 83.7596 19.7801 79.6546 12.646 72.6033C5.80987 65.85 1.738 57.6566 0.430361 48.1224C0.264837 46.881 0.132419 45.623 0 44.3816ZM42.1754 4.88771C41.0498 4.88771 39.8911 4.87116 38.7656 4.88771C38.3518 4.88771 37.9214 4.95392 37.5076 4.98703C29.1818 5.64912 21.6836 8.49613 14.9468 13.3956C11.8184 15.6633 9.2031 18.3944 7.96168 22.1187C7.20027 24.4195 6.7368 26.8527 6.42231 29.2693C5.3133 37.711 6.02505 46.0368 8.35893 54.2137C9.98106 59.9739 12.5301 65.3038 16.0392 70.1536C18.8531 74.0103 22.7264 76.3442 27.1293 77.8835C36.9117 81.2768 46.8266 81.4588 56.7249 78.6118C63.412 76.6918 68.8909 73.2158 72.2013 66.6114C76.687 57.6731 79.3188 48.3873 79.4016 38.3566C79.4347 34.4005 79.1037 30.4445 78.4747 26.5382C77.5146 20.6455 74.7007 15.9116 69.6026 12.6839C61.2602 7.38712 52.0902 4.83806 42.1754 4.88771Z" fill="#B3B3B3"/>
<path d="M12.9438 30.726C13.0763 27.6638 13.0597 24.8002 13.3908 21.9863C13.7715 18.6759 15.6419 16.3089 18.7868 15.0178C22.9415 13.3129 27.3113 12.3694 31.7473 11.757C36.5806 11.0783 41.447 10.83 46.3299 10.9956C52.2391 11.1942 58.0655 11.8894 63.6437 13.9584C64.852 14.4054 66.0107 14.935 67.1693 15.5144C70.2149 17.0372 71.6219 19.7187 72.1185 22.9298C72.3999 24.6844 72.4164 26.472 72.4661 28.2431C72.764 40.0615 71.0426 51.5985 67.4011 62.8541C66.6728 65.0721 65.8782 67.2239 65.0672 69.4088C64.9513 69.7233 64.7361 70.0047 64.4878 70.2364C62.1374 72.3717 59.2739 73.4972 56.2613 74.3248C50.7825 75.8146 45.1878 76.0794 39.56 75.7318C35.3557 75.4835 31.2011 74.8545 27.2285 73.431C26.285 73.0834 25.3416 72.6696 24.4312 72.2227C22.5939 71.3289 21.3193 69.9716 20.5083 68.0184C16.6019 58.7325 14.1191 49.0825 13.3742 39.0187C13.1425 36.2048 13.0763 33.3578 12.9438 30.726ZM44.1781 60.5202C44.1781 55.0579 44.1781 49.6618 44.1781 44.2492C45.883 44.2492 47.4389 44.2492 49.0942 44.2492C49.0942 49.7115 49.0942 55.0745 49.0942 60.5202C50.319 60.5202 51.428 60.5202 52.6198 60.5202C52.6364 60.2719 52.6529 60.0733 52.6529 59.8581C52.6529 51.0688 52.6529 42.2961 52.6529 33.5233C52.6529 33.1923 52.5702 32.8447 52.4046 32.5302C51.4777 30.5935 50.5011 28.6735 49.5576 26.7534C49.359 26.3065 49.0942 26.1575 48.5976 26.1741C46.3465 26.2072 44.0954 26.1906 41.8608 26.1906C40.9008 26.1906 40.9008 26.1906 40.9008 27.1507C40.9008 37.9759 40.9008 48.8011 40.9008 59.6595C40.9008 59.9574 40.9008 60.2388 40.9008 60.5698C41.9767 60.5202 42.9863 60.5202 44.1781 60.5202ZM31.4825 26.323C28.0561 26.323 24.6464 26.323 21.2862 26.323C21.2862 37.7938 21.2862 49.1984 21.2862 60.636C22.478 60.636 23.6036 60.636 24.8119 60.636C24.8119 55.1572 24.8119 49.7446 24.8119 44.1996C26.6326 44.1996 28.3706 44.1996 30.0755 44.1996C30.0755 42.8754 30.0755 41.6505 30.0755 40.3429C28.2879 40.3429 26.5664 40.3429 24.845 40.3429C24.845 36.9165 24.845 33.5399 24.845 30.1135C27.0795 30.1135 29.2479 30.1135 31.4825 30.1135C31.4825 28.7893 31.4825 27.581 31.4825 26.323ZM60.6477 30.1632C61.8891 30.1632 63.0312 30.1632 64.223 30.1632C64.223 28.8224 64.223 27.5645 64.223 26.323C60.598 26.323 57.0393 26.323 53.4805 26.323C53.4805 27.6307 53.4805 28.8555 53.4805 30.1632C54.6558 30.1632 55.7482 30.1632 57.0558 30.1632C57.0558 40.3263 57.0558 50.4067 57.0558 60.5202C58.3635 60.5202 59.4559 60.5202 60.6642 60.5202C60.6477 50.4398 60.6477 40.3429 60.6477 30.1632ZM36.6468 60.636C36.6468 49.1322 36.6468 37.6945 36.6468 26.2237C35.4385 26.2237 34.3129 26.2237 33.1874 26.2237C33.1874 37.7276 33.1874 49.1653 33.1874 60.636C34.346 60.636 35.4716 60.636 36.6468 60.636Z" fill="#B3B3B3"/>
<path d="M49.0609 39.5482C47.3891 39.5482 45.8332 39.5482 44.2607 39.5482C44.2607 36.3702 44.2607 33.2253 44.2607 29.9975C45.1711 29.9975 46.0649 29.981 46.9753 30.0141C47.1243 30.0141 47.3229 30.2624 47.3891 30.4279C47.9188 31.6859 48.4319 32.9273 48.9451 34.1853C48.9947 34.3012 49.0444 34.4336 49.0444 34.5494C49.0609 36.1881 49.0609 37.8599 49.0609 39.5482Z" fill="#B3B3B3"/>
</svg>
