<svg width="166" height="85" viewBox="0 0 166 85" fill="none" xmlns="http://www.w3.org/2000/svg">
<path d="M1.20139 83.4444C3.74525 80.6151 3.85883 80.0219 4.02645 68.6914L4.1731 58.7785L6.05295 58.8773L7.9328 58.9761L8.03229 67.1268C8.09431 72.2082 7.99051 76.0291 7.75664 77.2736C6.9859 81.3747 4.57011 83.9668 0.649805 84.8992C-0.296723 85.1243 -0.287826 85.1008 1.20139 83.4444ZM61.9936 80.2381C57.1919 79.4439 55.0018 78.483 53.2025 76.3809C50.7778 73.5483 50.3712 69.0793 52.1985 65.3475C54.2842 61.088 58.7794 58.7225 64.741 58.7474C67.5604 58.7591 68.8246 58.9642 70.7264 59.7181C71.8256 60.1539 71.974 60.3469 71.974 61.341C71.974 61.9615 71.8942 62.4693 71.7966 62.4693C71.699 62.4693 70.8382 62.0694 69.8837 61.5808C67.5519 60.387 63.3901 60.1036 61.0902 60.9819C58.9899 61.784 56.8406 63.8354 56.106 65.7391C55.2179 68.0404 55.3058 71.8276 56.2945 73.8627C57.2127 75.7526 59.1776 77.5213 60.9484 78.0519C62.517 78.5218 66.6227 78.5588 67.7938 78.1135C68.642 77.791 68.6472 77.7657 68.6472 73.9384V70.0877L70.5601 70.1875L72.473 70.2873V74.6071V78.927L70.4142 79.4826C68.3057 80.0516 63.4824 80.4844 61.9936 80.2381ZM92.4433 80.0984C88.5956 79.4106 86.7204 78.1085 85.7932 75.4805C85.3895 74.3362 85.2813 72.4172 85.2813 66.403V58.7765L87.1942 58.8763L89.1071 58.9761L89.2734 66.9605C89.4625 76.0342 89.5995 76.5812 91.9899 77.8006C93.8781 78.764 98.7184 78.6361 100.124 77.5857C102.594 75.7405 102.866 74.5413 102.894 65.3591L102.913 58.7676L103.995 58.8719L105.076 58.9761V66.7941C105.076 74.1706 105.035 74.6873 104.358 75.9429C103.383 77.7493 102.019 78.979 100.327 79.5759C98.513 80.2159 94.5646 80.4776 92.4433 80.0984ZM24.9784 69.3724L30.2225 58.9761H31.3661C32.6525 58.9761 32.3702 58.481 39.5689 73.3646L42.6663 79.7687H40.3382H38.01L36.7098 76.9409L35.4095 74.1131H30.2353H25.061L23.6586 76.9409C22.2677 79.7455 22.2458 79.7687 20.9952 79.7687H19.7342L24.9784 69.3724ZM32.672 68.0417C31.5724 65.6173 30.5714 63.5326 30.4476 63.409C30.3238 63.2855 29.2225 65.2691 28.0002 67.8171L25.778 72.4497H30.2247H34.6713L32.672 68.0417ZM114.557 79.6003C114.557 79.5076 116.883 74.7831 119.725 69.1014L124.892 58.7709L126.082 58.8735L127.271 58.9761L132.213 69.1229C134.931 74.7036 137.16 79.3819 137.167 79.5192C137.174 79.6564 136.15 79.7687 134.891 79.7687H132.603L131.421 77.0241L130.24 74.2795L124.941 74.1883L119.643 74.0971L118.348 76.9298C117.058 79.7495 117.047 79.7626 115.805 79.7656C115.119 79.7673 114.557 79.6929 114.557 79.6003ZM129.195 72.2726C129.195 72.1752 128.268 70.0674 127.134 67.5886L125.072 63.0818L123.921 65.3538C123.289 66.6034 122.274 68.7112 121.667 70.0378L120.562 72.4497H124.879C127.253 72.4497 129.195 72.37 129.195 72.2726ZM147.571 69.3724L147.659 58.9761L150.986 58.8764C157.431 58.6831 161.629 59.6978 163.205 61.8296C164.971 64.2203 164.457 67.8858 162.068 69.9307C161.305 70.5842 160.483 71.119 160.241 71.119C160 71.119 159.804 71.2313 159.807 71.3685C159.81 71.5057 161.159 73.4585 162.805 75.708L165.796 79.798L163.408 79.7002L161.02 79.6024L158.345 75.6934L155.669 71.7843H153.577H151.485V75.7765V79.7687H149.484H147.483L147.571 69.3724ZM157.843 69.5851C160.777 67.8904 160.904 62.9915 158.057 61.3098C157.321 60.8747 156.134 60.6337 154.237 60.5342L151.485 60.3897V65.4644V70.5391L154.1 70.3877C155.866 70.2855 157.081 70.025 157.843 69.5851ZM134.019 53.3737C133.287 53.1339 132.314 52.7246 131.857 52.4643C131.075 52.0195 131.193 51.98 133.811 51.8094C136.33 51.6453 136.673 51.5398 137.387 50.7091C138.816 49.0479 138.157 47.5273 135.516 46.3906C133.519 45.5311 135.042 45.7884 138.351 46.8693C142.288 48.156 145.121 48.1217 148.491 46.7465C150.984 45.7292 150.258 46.4709 147.493 47.7661C146.151 48.3946 144.95 48.6608 142.99 48.7642L140.316 48.9053L140.444 50.0008C140.547 50.8809 140.351 51.3377 139.447 52.3244C138.536 53.3183 138.038 53.577 136.835 53.6811C136.018 53.7519 134.751 53.6136 134.019 53.3737ZM124.371 47.9692C120.215 45.6762 119.173 45.4388 112.062 45.1657C104.892 44.8904 103.19 44.4755 99.5125 42.1057C96.9316 40.4426 93.4819 36.9164 91.9349 34.36C89.2152 29.866 88.002 29.3967 79.9584 29.7268C73.7874 29.98 68.1018 29.5031 64.3553 28.4179L61.6633 27.6382L59.9155 28.5028C58.4138 29.2457 57.7462 29.3653 55.1736 29.3521C52.6724 29.3394 51.7139 29.1661 49.3517 28.2998C42.0231 25.6122 41.6611 25.5068 40.1024 25.6073C38.6385 25.7016 38.5326 25.7712 38.4307 26.706C38.3008 27.8981 37.7078 28.6684 37.7078 27.645C37.7078 27.2648 37.476 26.7614 37.1927 26.5263C36.4677 25.9246 36.7245 24.8071 37.7078 24.2845C38.9403 23.6293 42.3324 23.9894 46.0248 25.1674C50.4082 26.5658 52.1646 26.9212 54.7175 26.9265C57.3162 26.9319 58.7407 26.3146 59.6783 24.7769C60.4718 23.4754 60.5333 20.8387 59.8311 18.2226C59.561 17.2162 59.3382 16.3644 59.336 16.3297C59.3339 16.2949 60.5672 16.9179 62.0767 17.7141C63.5863 18.5102 66.019 19.5866 67.4828 20.106L70.1443 21.0504L67.9157 21.1484C66.6879 21.2024 64.846 21.0267 63.8142 20.7573C62.0798 20.3044 61.959 20.3094 62.1801 20.8257C62.3113 21.1322 62.4913 22.2508 62.5799 23.3112C62.7397 25.2222 62.7548 25.2461 64.2802 26.0009C69.1757 28.423 71.7451 28.8351 81.4794 28.7593L88.8223 28.7021L90.1451 29.5773C91.1779 30.2605 91.7769 31.0903 92.8771 33.362C95.1826 38.1223 99.1116 41.4484 103.672 42.5009C104.444 42.679 107.247 42.8311 109.9 42.8387C117.65 42.861 121.524 44.0576 125.369 47.6167C126.467 48.6328 127.291 49.4581 127.199 49.4509C127.108 49.4436 125.835 48.7768 124.371 47.9692ZM129.675 43.6513C127.434 42.3066 125.791 40.8275 124.845 39.3039C123.993 37.9299 123.036 37.5879 119.014 37.2204C115.595 36.908 112.678 35.9764 111.823 34.9243C111.457 34.4741 111.486 34.4328 112.022 34.6341C113.568 35.2145 115.682 35.5523 119.445 35.8205C124.277 36.1648 125.152 36.5807 127.041 39.4277C127.74 40.4817 129.116 42.1299 130.099 43.0905C131.082 44.0512 131.834 44.8371 131.769 44.8371C131.704 44.8371 130.762 44.3035 129.675 43.6513ZM140.174 44.1352C137.909 43.4516 130.95 39.923 125.037 36.4606C114.883 30.5147 98.0387 21.7339 98.3051 22.5255C98.3695 22.7169 100.342 24.8961 102.688 27.368C105.034 29.84 106.862 31.8626 106.749 31.8626C106.296 31.8626 102.6 28.9295 100.252 26.7069C97.202 23.8199 95.3174 22.508 91.993 20.9577C89.7045 19.8905 89.1404 19.7645 86.5527 19.7433C83.2638 19.7164 83.4241 19.3873 86.9712 18.8842C88.307 18.6948 89.45 18.4896 89.5113 18.4283C89.7641 18.1755 70.9891 11.3668 64.655 9.4142C60.4043 8.10385 56.3621 7.1091 56.15 7.32123C56.0639 7.4073 56.2867 8.13266 56.6451 8.93312C57.0034 9.73359 57.2372 10.448 57.1644 10.5207C57.0917 10.5934 56.3469 10.0496 55.5092 9.31226C52.3146 6.5003 46.1334 4.01285 40.16 3.13539C36.8336 2.64677 35.492 2.85551 33.8122 4.123L32.7445 4.92872L35.1773 7.33397C38.3294 10.4503 39.1541 11.8691 36.6737 9.90846C34.4157 8.12357 32.2292 7.02565 29.6352 6.37406C27.5863 5.85943 26.0644 5.12826 26.0635 4.65817C26.0632 4.52515 26.8492 4.46255 27.8101 4.51906C29.2035 4.601 29.9245 4.43266 31.3721 3.68736C34.5899 2.03074 34.1713 1.82034 28.0179 2.00127C23.6789 2.12884 22.1233 2.30603 20.3711 2.87222C18.018 3.63258 16.2794 4.75751 16.6159 5.30195C16.7342 5.49339 17.2035 5.26965 17.7184 4.77629C18.6642 3.87023 20.4453 3.62045 21.4064 4.25912C22.1733 4.76876 19.9208 6.69122 17.7172 7.4078C14.053 8.59932 12.7908 10.4155 14.8331 11.5579C16.02 12.2218 16.5512 11.889 18.1649 9.47071C20.0071 6.71004 21.1799 6.35218 22.9816 8.00093C24.7656 9.6335 23.969 12.8349 21.2037 15.1464C19.5643 16.5168 19.4622 16.7579 20.3958 17.0542C21.3323 17.3515 22.2351 16.7589 23.379 15.0962C24.1532 13.971 24.6552 13.5913 25.6041 13.4133C27.4295 13.0709 28.7254 11.6161 28.7254 9.90929C28.7254 9.15129 28.5656 8.23246 28.3702 7.86743C28.0242 7.22083 28.042 7.21771 29.0637 7.74603C29.6404 8.04428 30.5652 9.01685 31.1187 9.90732C32.0389 11.3875 32.3163 11.5844 34.3543 12.2034C35.5803 12.5758 37.2481 13.3521 38.0605 13.9286C39.7577 15.133 42.3653 17.572 42.3653 17.9551C42.3653 18.0977 41.5557 17.6964 40.5661 17.0634C33.5569 12.5797 28.532 12.641 23.177 17.2757C20.6517 19.4614 18.7092 18.6954 18.8406 15.5656C18.9092 13.9318 18.9374 13.8874 19.7879 14.0741C20.474 14.2247 20.8172 14.0722 21.3681 13.3719C22.1593 12.366 22.2513 11.5337 21.6893 10.4659C20.8684 8.90633 19.6425 8.82433 18.8904 10.2787C18.5263 10.9828 18.4239 11.6929 18.5724 12.4843C18.7871 13.6292 18.7734 13.6472 17.8533 13.4271C17.3373 13.3036 16.3164 13.0731 15.5845 12.9147C14.0665 12.5864 12.0913 10.5971 12.0913 9.39665C12.0913 8.95157 12.7249 8.0733 13.712 7.14998C14.6033 6.31621 15.4295 5.24806 15.5479 4.7763C16.2667 1.91239 24.7537 -0.378352 33.0503 0.0522088C39.494 0.386614 44.2563 1.19618 52.8448 3.41721C66.6672 6.99174 82.5909 13.4489 104.244 24.2601C113.232 28.7474 117.987 31.3259 128.953 37.6573C131.108 38.901 134.401 40.6002 136.272 41.4332C139.237 42.753 140.038 42.9665 142.502 43.0932L145.33 43.2386L148.235 41.7012C150.435 40.5367 151.349 40.2163 152.004 40.3807C153.193 40.679 153.715 41.9005 153.164 43.0905C152.743 43.9967 152.737 43.9984 152.459 43.2669C151.994 42.0406 150.803 42.013 148.172 43.1675C145.523 44.3303 142.166 44.7365 140.174 44.1352ZM16.4162 6.36034C16.4162 6.2975 16.2934 6.24607 16.1434 6.24607C15.7254 6.24607 13.0894 8.58279 13.0894 8.95326C13.0894 9.13287 13.8379 8.64864 14.7528 7.87722C15.6677 7.10578 16.4162 6.42319 16.4162 6.36034ZM19.5962 5.40684C20.2123 4.92364 20.1972 4.90447 19.2696 4.99099C18.7348 5.04088 18.2358 5.26883 18.1607 5.49754C17.9719 6.07239 18.8157 6.01909 19.5962 5.40684ZM32.3045 29.2843C30.5099 27.3975 30.8429 24.7373 33.1643 22.4159C34.8314 20.7488 37.211 19.9591 41.4742 19.6583L44.2522 19.4622L43.7889 18.1175C43.2807 16.6423 43.6416 14.2005 44.5439 13.01C44.9586 12.4627 45.0067 12.5627 45.0162 13.9916C45.0275 15.6949 45.6948 17.6386 46.6197 18.6622C47.3995 19.5253 50.0489 20.8421 52.8448 21.7563C55.6043 22.6585 55.2724 22.7059 50.6571 22.0685C44.3136 21.1924 40.4409 21.0747 38.0571 21.6854C34.6119 22.568 32.7176 24.4528 32.7176 26.998C32.7176 28.3503 33.9362 29.5306 35.3407 29.5389C36.0246 29.5429 36.104 29.613 35.7117 29.8665C34.7347 30.4978 33.2113 30.2375 32.3045 29.2843ZM26.3655 3.56538C25.6632 3.13136 26.0401 3.02253 28.8917 2.83596C31.2373 2.68249 31.4347 2.71128 30.5551 3.07851C29.2096 3.64026 26.9176 3.90661 26.3655 3.56538Z" fill="#B3B3B3"/>
</svg>
