<svg width="163" height="85" viewBox="0 0 163 85" fill="none" xmlns="http://www.w3.org/2000/svg">
<path fill-rule="evenodd" clip-rule="evenodd" d="M109.969 54.7564L111.446 50.735H104.659L105.711 47.6671H113.064L114.678 43.2307H100.799L100.606 43.795L100.937 44.1207C101.296 44.4671 101.28 44.8779 100.971 45.7721L95.19 62.4579H108.16L109.726 57.9921H102.157L103.271 54.7564H109.969H109.969ZM93.7807 43.2421L86.7143 57.0593H86.5657L86.2086 43.2421H80.2964L80.0657 43.7407L80.5743 44.0471C81.0629 44.3907 81.1993 44.74 81.2628 45.6986L82.0629 62.465H88.6514L99.2807 43.2421H93.7814H93.7807ZM40.7721 45.7207L26.2014 50.4907L24.4229 55.3514H37.2729L38.9457 50.7714H30.0371L40.1486 47.3643L40.7721 45.7207ZM54.5721 50.22C54.24 51.0414 53.8729 51.2386 53.3957 51.4329C53.0721 51.5586 52.3929 51.6043 51.735 51.6043H49.1921L50.5757 47.6321H53.6486C54.5686 47.6321 54.9443 48.1079 54.9564 48.6514C54.9621 48.9971 54.8014 49.63 54.5721 50.22ZM54.115 43.2421H45.7779L45.6093 43.7407L45.9464 44.0693C46.3029 44.4193 46.2893 44.8314 45.9771 45.7207L40.1521 62.4643H45.4757L47.7529 55.8179L49.5536 55.82L51.5579 62.4643H56.9079L54.3907 55.6643C55.8507 55.4286 56.5857 55.0136 57.3179 54.3643C58.3207 53.45 59.0164 52.1686 59.5921 50.2807C60.4314 47.5421 59.9243 45.9779 59.3836 45.1736C58.6414 44.0686 57.0757 43.2414 54.115 43.2414V43.2421ZM125.544 50.22C125.213 51.0414 124.842 51.2386 124.371 51.4329C124.041 51.5586 123.368 51.6043 122.714 51.6043H120.171L121.544 47.6321H124.622C125.536 47.6321 125.918 48.1079 125.926 48.6514C125.935 48.9971 125.771 49.63 125.544 50.22ZM125.081 43.2421H116.744L116.581 43.7407L116.916 44.0693C117.273 44.4193 117.256 44.8314 116.951 45.7207L111.12 62.465H116.45L118.724 55.8207H120.526L122.53 62.465H127.874L125.365 55.665C126.822 55.4293 127.554 55.0143 128.285 54.365C129.291 53.4507 129.989 52.1693 130.563 50.2814C131.405 47.5429 130.897 45.9786 130.358 45.1743C129.616 44.0693 128.048 43.2421 125.081 43.2421ZM136.013 69.04C121.387 76.5636 101.877 80.7071 81.07 80.7071C60.2679 80.7071 40.7614 76.5643 26.1336 69.04C12.0679 61.8021 4.31357 52.3757 4.31357 42.5029C4.31357 32.6214 12.0679 23.1957 26.1336 15.9629C40.7614 8.44143 60.2679 4.29286 81.0707 4.29286C101.878 4.29286 121.387 8.44214 136.014 15.9629C150.083 23.195 157.828 32.6214 157.828 42.5029C157.828 52.375 150.083 61.8021 136.014 69.04H136.013ZM137.993 12.1471C122.761 4.31429 102.546 0 81.0707 0C59.5964 0 39.3821 4.31429 24.1529 12.1471C15.1329 16.7893 0 26.9043 0 42.5029C0 58.0943 15.1329 68.2136 24.1529 72.855C39.3771 80.6871 59.5907 85 81.0714 85C102.551 85 122.765 80.6871 137.993 72.855C147.014 68.2136 162.143 58.0979 162.143 42.5029C162.143 26.9014 147.013 16.7886 137.993 12.1471ZM133.964 65.095C118.226 73.1879 98.6536 76.2629 81.0707 76.2629C63.4886 76.2629 43.9193 73.1879 28.1786 65.095C19.8486 60.8093 8.77857 52.9086 8.77857 42.5021C8.77857 32.0879 19.8471 24.195 28.1786 19.9107C43.9193 11.8186 63.4871 8.74143 81.0707 8.74143C98.6536 8.74143 118.226 11.8129 133.964 19.9107C142.299 24.195 153.366 32.0864 153.366 42.5029C153.366 52.9121 142.297 60.8086 133.964 65.095H133.964ZM134.781 18.3321C118.802 10.1086 98.9086 6.96143 81.0707 6.96143C63.2321 6.96143 43.3421 10.1114 27.3593 18.3321C18.3843 22.9464 6.99286 31.275 6.99286 42.5029C6.99286 53.7221 18.3857 62.0536 27.3593 66.6743C43.3429 74.8893 63.2371 78.0393 81.0707 78.0393C98.9086 78.0393 118.802 74.8943 134.781 66.6736C143.759 62.0536 155.15 53.7221 155.15 42.5021C155.15 31.275 143.762 22.9471 134.781 18.3321ZM72.7421 53.195C72.0793 55.0836 71.5593 56.3 70.7921 57.1021C70.1886 57.7329 69.3936 58.185 67.5586 58.185C66.1207 58.185 65.3207 57.6007 65.3207 56.4929C65.3114 55.7771 65.505 54.6914 66.275 52.5814C66.9393 50.6936 67.4578 49.4771 68.2279 48.6729C68.8236 48.0443 69.6236 47.59 71.4579 47.59C72.895 47.59 73.6943 48.1743 73.6928 49.2779C73.7064 50.0007 73.5114 51.0864 72.7421 53.195ZM72.4343 43.0057H71.8221C68.1821 43.0057 66.105 43.9829 64.3979 45.785C62.2764 48.0207 60.2829 54.0593 60.3221 57.2564C60.3614 60.5129 62.4793 62.7707 66.9286 62.7707H67.5786C71.2271 62.7707 73.3057 61.7936 75.0114 59.9907C77.1329 57.7521 79.0843 51.715 79.0457 48.5229C79.0029 45.2657 76.8864 43.0057 72.4343 43.0057ZM34.0714 39.0843L47.2486 39.0814L48.8407 34.4993H41.1807L46.2421 19.8636H39.6343L39.4686 20.3593L39.7993 20.6864C40.1579 21.0364 40.145 21.4493 39.8336 22.34L34.0714 39.0843ZM68.7879 39.0771H73.6314L77.8536 26.6414L80.325 39.0771H85.1714L91.7786 19.8571L86.7121 19.8643L83.1836 30.3114L81.1679 19.8643H74.3407L74.1743 20.3593L74.5086 20.6864C74.8671 21.0364 74.85 21.4493 74.5443 22.34L68.7879 39.0771ZM98.7486 24.4229H100.859C102.296 24.4229 103.089 24.9014 103.109 26.0107C103.119 26.725 102.928 27.7021 102.181 29.8114C101.523 31.6964 100.997 32.7886 100.247 33.59C99.6479 34.2193 98.8493 34.4993 97.015 34.4993H95.2521L98.7486 24.4229ZM94.1164 22.34L88.3521 39.0843H96.8586C100.505 39.0843 102.584 38.2814 104.275 36.4786C106.392 34.2479 108.329 28.4429 108.266 25.2486C108.204 21.9879 106.089 19.8643 101.641 19.8643H93.9114L93.7507 20.3593L94.0864 20.6864C94.4414 21.0364 94.4278 21.4493 94.1164 22.34ZM126.213 26.7564H113.366L111.693 31.3329H120.596L110.484 34.7493L109.859 36.3871L124.43 31.6171L126.213 26.7564ZM62.1021 25.1771H62.2771L62.3679 30.9829H58.8129L62.1021 25.1771ZM48.6143 39.0771H54.2186L56.6471 34.8293H62.4514L62.5086 39.0764H67.595L66.4979 19.8643H58.8836L58.7143 20.3593L58.96 20.6036C59.3614 20.9943 59.1957 21.5579 57.7136 23.8993L48.6143 39.0771Z" fill="#B3B3B3"/>
</svg>
