<svg width="1426" height="146" viewBox="0 0 1426 146" fill="none" xmlns="http://www.w3.org/2000/svg">
<path d="M6.28009e-05 143.352V133.65H6.13806C8.38206 133.65 10.4281 133.386 12.2761 132.858C14.1241 132.33 15.6421 131.208 16.8301 129.492C18.0181 127.644 18.6121 124.938 18.6121 121.374V24.156C18.6121 20.46 18.0181 17.754 16.8301 16.038C15.6421 14.19 14.1241 13.002 12.2761 12.474C10.4281 11.946 8.38206 11.682 6.13806 11.682H6.28009e-05V1.98004H59.7961C71.9401 1.98004 81.9061 3.36604 89.6941 6.13805C97.4821 8.91004 103.224 13.068 106.92 18.612C110.748 24.156 112.662 31.02 112.662 39.204C112.662 46.2 111.276 52.14 108.504 57.024C105.864 61.908 102.432 65.868 98.2081 68.904C93.9841 71.94 89.5621 74.316 84.9421 76.0321L109.89 117.612C111.606 120.384 113.256 122.826 114.84 124.938C116.424 126.918 118.008 128.568 119.592 129.888C121.176 131.208 122.826 132.198 124.542 132.858C126.258 133.386 128.106 133.65 130.086 133.65H130.68V143.352H125.73C119.658 143.352 114.444 143.154 110.088 142.758C105.864 142.23 102.234 141.372 99.1981 140.184C96.2941 138.864 93.6541 137.016 91.2781 134.64C88.9021 132.264 86.6581 129.228 84.5461 125.532L59.7961 81.576H45.5401V121.374C45.5401 124.938 46.0681 127.644 47.1241 129.492C48.3121 131.208 49.8301 132.33 51.6781 132.858C53.6581 133.386 55.7701 133.65 58.0141 133.65H64.1521V143.352H6.28009e-05ZM57.6181 70.884C64.3501 70.884 69.6301 69.828 73.4581 67.716C77.2861 65.472 79.9921 62.172 81.5761 57.816C83.1601 53.328 83.9521 47.784 83.9521 41.184C83.9521 34.32 83.0941 28.842 81.3781 24.75C79.6621 20.526 76.8241 17.49 72.8641 15.642C69.0361 13.794 63.8221 12.87 57.2221 12.87H45.5401V70.884H57.6181ZM136.318 143.352V133.65H142.456C144.832 133.65 146.944 133.386 148.792 132.858C150.64 132.198 152.092 130.944 153.148 129.096C154.336 127.116 154.93 124.212 154.93 120.384V24.948C154.93 20.988 154.336 18.084 153.148 16.236C152.092 14.388 150.64 13.2 148.792 12.672C146.944 12.012 144.832 11.682 142.456 11.682H136.318V1.98004H200.47V11.682H194.332C192.088 11.682 189.976 12.012 187.996 12.672C186.148 13.2 184.696 14.388 183.64 16.236C182.584 18.084 182.056 20.988 182.056 24.948V120.384C182.056 124.212 182.584 127.116 183.64 129.096C184.696 130.944 186.148 132.198 187.996 132.858C189.976 133.386 192.088 133.65 194.332 133.65H200.47V143.352H136.318ZM214.666 143.352V134.244L288.916 13.266H248.326C244.366 13.266 241.264 14.058 239.02 15.642C236.776 17.094 235.126 19.14 234.07 21.78C233.146 24.288 232.486 27.192 232.09 30.492L231.1 40.392H218.428L219.418 1.98004H320.596V11.286L246.148 132.066H291.688C296.44 132.066 300.136 131.208 302.776 129.492C305.548 127.644 307.462 125.334 308.518 122.562C309.706 119.79 310.432 116.82 310.696 113.652L311.686 104.94H324.556L323.566 143.352H214.666ZM340.93 143.352V134.244L415.18 13.266H374.59C370.63 13.266 367.528 14.058 365.284 15.642C363.04 17.094 361.39 19.14 360.334 21.78C359.41 24.288 358.75 27.192 358.354 30.492L357.364 40.392H344.692L345.682 1.98004H446.86V11.286L372.412 132.066H417.952C422.704 132.066 426.4 131.208 429.04 129.492C431.812 127.644 433.726 125.334 434.782 122.562C435.97 119.79 436.696 116.82 436.96 113.652L437.95 104.94H450.82L449.83 143.352H340.93ZM459.669 143.352V133.65H462.639C465.147 133.65 467.259 133.254 468.975 132.462C470.691 131.67 472.275 130.218 473.727 128.106C475.179 125.994 476.697 122.892 478.281 118.8L521.643 1.98004H544.215L586.983 120.78C588.171 124.212 589.425 126.852 590.745 128.7C592.197 130.548 593.781 131.868 595.497 132.66C597.345 133.32 599.391 133.65 601.635 133.65H604.803V143.352H543.621V133.65H550.155C552.795 133.65 555.039 132.99 556.887 131.67C558.867 130.35 559.857 128.238 559.857 125.334C559.857 124.41 559.725 123.486 559.461 122.562C559.329 121.506 559.131 120.582 558.867 119.79C558.735 118.866 558.471 118.008 558.075 117.216L550.947 96.426H501.249L494.913 115.038C494.517 116.094 494.121 117.216 493.725 118.404C493.461 119.592 493.197 120.78 492.933 121.968C492.801 123.156 492.735 124.212 492.735 125.136C492.735 128.04 493.725 130.218 495.705 131.67C497.685 132.99 500.193 133.65 503.229 133.65H509.961V143.352H459.669ZM505.209 85.338H546.987L535.899 51.876C534.843 48.576 533.721 45.144 532.533 41.5801C531.477 38.016 530.421 34.518 529.365 31.086C528.441 27.654 527.583 24.42 526.791 21.384C526.263 23.496 525.603 25.74 524.811 28.116C524.151 30.492 523.425 32.934 522.633 35.442C521.973 37.95 521.181 40.524 520.257 43.164C519.465 45.672 518.607 48.18 517.683 50.688L505.209 85.338ZM677.434 145.332C662.914 145.332 650.77 142.296 641.002 136.224C631.366 130.152 624.106 121.704 619.222 110.88C614.47 99.924 612.094 87.12 612.094 72.468C612.094 58.212 614.602 45.672 619.618 34.848C624.634 23.892 632.092 15.378 641.992 9.30604C651.892 3.10204 664.102 4.35114e-05 678.622 4.35114e-05C688.258 4.35114e-05 696.244 0.990043 702.58 2.97004C709.048 4.95005 713.866 7.65605 717.034 11.088C720.202 14.52 721.786 18.348 721.786 22.572C721.786 27.324 719.806 31.2181 715.846 34.2541C712.018 37.158 706.672 38.61 699.808 38.61C699.808 34.386 699.082 30.228 697.63 26.136C696.31 22.044 694 18.678 690.7 16.038C687.532 13.266 683.176 11.88 677.632 11.88C668.656 11.88 661.462 14.256 656.05 19.008C650.77 23.76 646.942 30.624 644.566 39.6C642.19 48.576 641.002 59.532 641.002 72.468C641.002 84.744 642.322 95.238 644.962 103.95C647.734 112.662 652.09 119.262 658.03 123.75C663.97 128.238 671.758 130.482 681.394 130.482C687.862 130.482 693.406 129.624 698.026 127.908C702.646 126.06 706.54 123.75 709.708 120.978C712.876 118.206 715.582 115.368 717.826 112.464C718.882 113.256 719.74 114.378 720.4 115.83C721.06 117.282 721.39 118.932 721.39 120.78C721.39 123.42 720.598 126.192 719.014 129.096C717.43 131.868 714.922 134.508 711.49 137.016C708.058 139.524 703.504 141.57 697.828 143.154C692.284 144.606 685.486 145.332 677.434 145.332ZM735.732 143.352V133.65H741.87C744.246 133.65 746.358 133.386 748.206 132.858C750.054 132.198 751.506 130.944 752.562 129.096C753.75 127.116 754.344 124.212 754.344 120.384V24.948C754.344 20.988 753.75 18.084 752.562 16.236C751.506 14.388 750.054 13.2 748.206 12.672C746.358 12.012 744.246 11.682 741.87 11.682H735.732V1.98004H799.884V11.682H793.746C791.502 11.682 789.456 11.946 787.608 12.474C785.76 13.002 784.242 14.19 783.054 16.038C781.998 17.754 781.47 20.46 781.47 24.156V132.066H819.09C822.39 132.066 825.162 131.34 827.406 129.888C829.782 128.436 831.63 126.39 832.95 123.75C834.27 120.978 835.26 117.942 835.92 114.642L838.494 99.792H849.384L847.998 143.352H735.732ZM856.83 143.352V133.65H859.8C862.308 133.65 864.42 133.254 866.136 132.462C867.852 131.67 869.436 130.218 870.888 128.106C872.34 125.994 873.858 122.892 875.442 118.8L918.804 1.98004H941.376L984.144 120.78C985.332 124.212 986.586 126.852 987.906 128.7C989.358 130.548 990.942 131.868 992.658 132.66C994.506 133.32 996.552 133.65 998.796 133.65H1001.96V143.352H940.782V133.65H947.316C949.956 133.65 952.2 132.99 954.048 131.67C956.028 130.35 957.018 128.238 957.018 125.334C957.018 124.41 956.886 123.486 956.622 122.562C956.49 121.506 956.292 120.582 956.028 119.79C955.896 118.866 955.632 118.008 955.236 117.216L948.108 96.426H898.41L892.074 115.038C891.678 116.094 891.282 117.216 890.886 118.404C890.622 119.592 890.358 120.78 890.094 121.968C889.962 123.156 889.896 124.212 889.896 125.136C889.896 128.04 890.886 130.218 892.866 131.67C894.846 132.99 897.354 133.65 900.39 133.65H907.122V143.352H856.83ZM902.37 85.338H944.148L933.06 51.876C932.004 48.576 930.882 45.144 929.694 41.5801C928.638 38.016 927.582 34.518 926.526 31.086C925.602 27.654 924.744 24.42 923.952 21.384C923.424 23.496 922.764 25.74 921.972 28.116C921.312 30.492 920.586 32.934 919.794 35.442C919.134 37.95 918.342 40.524 917.418 43.164C916.626 45.672 915.768 48.18 914.844 50.688L902.37 85.338ZM1053.12 145.332C1045.07 145.332 1038.27 144.606 1032.72 143.154C1027.18 141.57 1022.69 139.458 1019.26 136.818C1015.83 134.178 1013.32 131.208 1011.74 127.908C1010.15 124.476 1009.36 121.044 1009.36 117.612C1009.36 113.784 1010.22 110.682 1011.93 108.306C1013.65 105.798 1015.96 103.95 1018.86 102.762C1021.9 101.574 1025.13 100.98 1028.57 100.98C1028.7 107.712 1029.82 113.586 1031.93 118.602C1034.04 123.618 1037.08 127.512 1041.04 130.284C1045.13 132.924 1050.02 134.244 1055.69 134.244C1063.88 134.244 1070.21 132.198 1074.7 128.106C1079.32 123.882 1081.63 118.338 1081.63 111.474C1081.63 106.854 1080.51 102.894 1078.26 99.594C1076.02 96.294 1072.52 93.258 1067.77 90.486C1063.02 87.714 1056.88 84.81 1049.36 81.774C1042.89 79.134 1037.28 76.296 1032.53 73.2601C1027.77 70.2241 1023.95 66.99 1021.04 63.558C1018.14 60.126 1015.96 56.364 1014.51 52.272C1013.19 48.048 1012.53 43.362 1012.53 38.214C1012.53 30.426 1014.57 23.694 1018.67 18.018C1022.76 12.21 1028.3 7.78804 1035.3 4.75204C1042.29 1.58404 1050.28 4.35114e-05 1059.26 4.35114e-05C1068.23 4.35114e-05 1075.69 1.05605 1081.63 3.16805C1087.57 5.14805 1091.99 7.85404 1094.9 11.286C1097.93 14.718 1099.45 18.48 1099.45 22.572C1099.45 27.06 1097.67 30.756 1094.1 33.66C1090.54 36.432 1085.26 37.818 1078.26 37.818C1078.26 33.99 1077.54 30.03 1076.09 25.938C1074.77 21.846 1072.52 18.414 1069.35 15.642C1066.32 12.738 1062.16 11.286 1056.88 11.286C1052.79 11.286 1049.09 12.078 1045.79 13.662C1042.62 15.114 1040.12 17.358 1038.27 20.394C1036.42 23.298 1035.5 26.862 1035.5 31.086C1035.5 35.442 1036.42 39.27 1038.27 42.5701C1040.12 45.87 1043.35 49.038 1047.97 52.074C1052.59 55.11 1059.12 58.344 1067.57 61.776C1076.15 65.208 1083.15 68.904 1088.56 72.864C1094.1 76.692 1098.2 81.114 1100.84 86.13C1103.61 91.014 1104.99 96.756 1104.99 103.356C1104.99 111.804 1102.82 119.196 1098.46 125.532C1094.24 131.736 1088.23 136.62 1080.44 140.184C1072.79 143.616 1063.68 145.332 1053.12 145.332ZM1166.04 145.332C1157.99 145.332 1151.19 144.606 1145.65 143.154C1140.1 141.57 1135.61 139.458 1132.18 136.818C1128.75 134.178 1126.24 131.208 1124.66 127.908C1123.07 124.476 1122.28 121.044 1122.28 117.612C1122.28 113.784 1123.14 110.682 1124.86 108.306C1126.57 105.798 1128.88 103.95 1131.79 102.762C1134.82 101.574 1138.06 100.98 1141.49 100.98C1141.62 107.712 1142.74 113.586 1144.85 118.602C1146.97 123.618 1150 127.512 1153.96 130.284C1158.05 132.924 1162.94 134.244 1168.61 134.244C1176.8 134.244 1183.13 132.198 1187.62 128.106C1192.24 123.882 1194.55 118.338 1194.55 111.474C1194.55 106.854 1193.43 102.894 1191.19 99.594C1188.94 96.294 1185.44 93.258 1180.69 90.486C1175.94 87.714 1169.8 84.81 1162.28 81.774C1155.81 79.134 1150.2 76.296 1145.45 73.2601C1140.7 70.2241 1136.87 66.99 1133.96 63.558C1131.06 60.126 1128.88 56.364 1127.43 52.272C1126.11 48.048 1125.45 43.362 1125.45 38.214C1125.45 30.426 1127.5 23.694 1131.59 18.018C1135.68 12.21 1141.22 7.78804 1148.22 4.75204C1155.22 1.58404 1163.2 4.35114e-05 1172.18 4.35114e-05C1181.15 4.35114e-05 1188.61 1.05605 1194.55 3.16805C1200.49 5.14805 1204.91 7.85404 1207.82 11.286C1210.85 14.718 1212.37 18.48 1212.37 22.572C1212.37 27.06 1210.59 30.756 1207.03 33.66C1203.46 36.432 1198.18 37.818 1191.19 37.818C1191.19 33.99 1190.46 30.03 1189.01 25.938C1187.69 21.846 1185.44 18.414 1182.28 15.642C1179.24 12.738 1175.08 11.286 1169.8 11.286C1165.71 11.286 1162.01 12.078 1158.71 13.662C1155.55 15.114 1153.04 17.358 1151.19 20.394C1149.34 23.298 1148.42 26.862 1148.42 31.086C1148.42 35.442 1149.34 39.27 1151.19 42.5701C1153.04 45.87 1156.27 49.038 1160.89 52.074C1165.51 55.11 1172.05 58.344 1180.49 61.776C1189.07 65.208 1196.07 68.904 1201.48 72.864C1207.03 76.692 1211.12 81.114 1213.76 86.13C1216.53 91.014 1217.92 96.756 1217.92 103.356C1217.92 111.804 1215.74 119.196 1211.38 125.532C1207.16 131.736 1201.15 136.62 1193.36 140.184C1185.71 143.616 1176.6 145.332 1166.04 145.332ZM1234.21 143.352V133.65H1240.35C1242.73 133.65 1244.84 133.386 1246.69 132.858C1248.53 132.198 1249.99 130.944 1251.04 129.096C1252.23 127.116 1252.82 124.212 1252.82 120.384V24.948C1252.82 20.988 1252.23 18.084 1251.04 16.236C1249.99 14.388 1248.53 13.2 1246.69 12.672C1244.84 12.012 1242.73 11.682 1240.35 11.682H1234.21V1.98004H1298.36V11.682H1292.23C1289.98 11.682 1287.87 12.012 1285.89 12.672C1284.04 13.2 1282.59 14.388 1281.53 16.236C1280.48 18.084 1279.95 20.988 1279.95 24.948V120.384C1279.95 124.212 1280.48 127.116 1281.53 129.096C1282.59 130.944 1284.04 132.198 1285.89 132.858C1287.87 133.386 1289.98 133.65 1292.23 133.65H1298.36V143.352H1234.21ZM1381.07 145.332C1366.55 145.332 1354.4 142.296 1344.64 136.224C1335 130.152 1327.74 121.704 1322.86 110.88C1318.1 99.924 1315.73 87.12 1315.73 72.468C1315.73 58.212 1318.24 45.672 1323.25 34.848C1328.27 23.892 1335.73 15.378 1345.63 9.30604C1355.53 3.10204 1367.74 4.35114e-05 1382.26 4.35114e-05C1391.89 4.35114e-05 1399.88 0.990043 1406.21 2.97004C1412.68 4.95005 1417.5 7.65605 1420.67 11.088C1423.84 14.52 1425.42 18.348 1425.42 22.572C1425.42 27.324 1423.44 31.2181 1419.48 34.2541C1415.65 37.158 1410.31 38.61 1403.44 38.61C1403.44 34.386 1402.72 30.228 1401.26 26.136C1399.94 22.044 1397.63 18.678 1394.33 16.038C1391.17 13.266 1386.81 11.88 1381.27 11.88C1372.29 11.88 1365.1 14.256 1359.68 19.008C1354.4 23.76 1350.58 30.624 1348.2 39.6C1345.82 48.576 1344.64 59.532 1344.64 72.468C1344.64 84.744 1345.96 95.238 1348.6 103.95C1351.37 112.662 1355.72 119.262 1361.66 123.75C1367.6 128.238 1375.39 130.482 1385.03 130.482C1391.5 130.482 1397.04 129.624 1401.66 127.908C1406.28 126.06 1410.17 123.75 1413.34 120.978C1416.51 118.206 1419.22 115.368 1421.46 112.464C1422.52 113.256 1423.37 114.378 1424.03 115.83C1424.69 117.282 1425.02 118.932 1425.02 120.78C1425.02 123.42 1424.23 126.192 1422.65 129.096C1421.06 131.868 1418.56 134.508 1415.12 137.016C1411.69 139.524 1407.14 141.57 1401.46 143.154C1395.92 144.606 1389.12 145.332 1381.07 145.332Z" fill="#1A1A1A"/>
</svg>
